<?xml version="1.0" encoding="UTF-8"?>
<!DOCTYPE svg PUBLIC "-//W3C//DTD SVG 1.1//EN" "http://www.w3.org/Graphics/SVG/1.1/DTD/svg11.dtd">
<svg xmlns="http://www.w3.org/2000/svg" version="1.1" width="923px" height="127px" style="shape-rendering:geometricPrecision; text-rendering:geometricPrecision; image-rendering:optimizeQuality; fill-rule:evenodd; clip-rule:evenodd" xmlns:xlink="http://www.w3.org/1999/xlink">
<g><path style="opacity:0.939" fill="#404140" d="M 16.5,-0.5 C 22.1667,-0.5 27.8333,-0.5 33.5,-0.5C 38.0381,13.7802 42.3714,28.1135 46.5,42.5C 42.1161,42.8256 37.7828,42.4922 33.5,41.5C 32.8333,39.5 32.1667,37.5 31.5,35.5C 27.2172,34.5078 22.8839,34.1744 18.5,34.5C 18.2437,36.9372 17.5771,39.2706 16.5,41.5C 12.2172,42.4922 7.88387,42.8256 3.5,42.5C 7.63109,28.1066 11.9644,13.7733 16.5,-0.5 Z M 24.5,13.5 C 26.2005,16.926 27.5338,20.5926 28.5,24.5C 26.1667,25.8333 23.8333,25.8333 21.5,24.5C 23.1167,20.986 24.1167,17.3193 24.5,13.5 Z"/></g>
<g><path style="opacity:0.936" fill="#404140" d="M 50.5,-0.5 C 54.1667,-0.5 57.8333,-0.5 61.5,-0.5C 65.9788,6.44344 70.4788,13.4434 75,20.5C 75.4996,13.5079 75.6663,6.50793 75.5,-0.5C 79.5,-0.5 83.5,-0.5 87.5,-0.5C 87.5,13.8333 87.5,28.1667 87.5,42.5C 83.8183,42.6653 80.1516,42.4986 76.5,42C 72.1233,35.4129 67.6233,28.9129 63,22.5C 62.5004,29.1583 62.3337,35.825 62.5,42.5C 58.5,42.5 54.5,42.5 50.5,42.5C 50.5,28.1667 50.5,13.8333 50.5,-0.5 Z"/></g>
<g><path style="opacity:0.902" fill="#404140" d="M 90.5,-0.5 C 95.1667,-0.5 99.8333,-0.5 104.5,-0.5C 106.988,5.14514 109.488,10.8118 112,16.5C 114.512,10.8118 117.012,5.14514 119.5,-0.5C 124.167,-0.5 128.833,-0.5 133.5,-0.5C 128.948,8.93683 124.114,18.2702 119,27.5C 118.501,32.4889 118.334,37.4889 118.5,42.5C 114.167,42.5 109.833,42.5 105.5,42.5C 105.666,37.4889 105.499,32.4889 105,27.5C 99.8857,18.2702 95.0523,8.93683 90.5,-0.5 Z"/></g>
<g><path style="opacity:0.976" fill="#ef852e" d="M 671.5,44.5 C 671.986,55.0274 672.986,65.3608 674.5,75.5C 675.477,78.2869 675.81,81.2869 675.5,84.5C 678.167,84.5 680.833,84.5 683.5,84.5C 690.639,85.7071 697.972,86.3738 705.5,86.5C 707.167,86.5 708.833,86.5 710.5,86.5C 711.167,86.5 711.833,86.5 712.5,86.5C 714.833,87.1667 717.167,87.8333 719.5,88.5C 717.5,88.5 715.5,88.5 713.5,88.5C 707.991,88.8749 702.658,89.5416 697.5,90.5C 687.487,90.986 677.487,91.6527 667.5,92.5C 666.167,92.5 664.833,92.5 663.5,92.5C 663.806,89.6146 663.473,86.9479 662.5,84.5C 663.848,83.8141 665.015,82.8141 666,81.5C 666.499,76.8452 666.666,72.1785 666.5,67.5C 667.624,61.261 668.291,54.9277 668.5,48.5C 668.123,41.7431 668.623,35.0764 670,28.5C 671.191,33.7674 671.691,39.1007 671.5,44.5 Z"/></g>
<g><path style="opacity:0.95" fill="#f6872a" d="M 46.5,126.5 C 40.5,126.5 34.5,126.5 28.5,126.5C 11.0769,121.349 1.41025,109.682 -0.5,91.5C -0.5,88.8333 -0.5,86.1667 -0.5,83.5C 4.60628,54.9138 21.6063,43.7472 50.5,50C 62.3353,54.0033 69.3353,62.17 71.5,74.5C 64.1667,75.8333 56.8333,75.8333 49.5,74.5C 47.2059,69.3482 43.2059,66.6815 37.5,66.5C 26.4016,69.0003 21.4016,76.0003 22.5,87.5C 22.2492,104.419 30.2492,110.585 46.5,106C 49.0244,104.117 50.3577,101.617 50.5,98.5C 46.1667,98.5 41.8333,98.5 37.5,98.5C 37.5,93.1667 37.5,87.8333 37.5,82.5C 48.8333,82.5 60.1667,82.5 71.5,82.5C 71.6663,89.5079 71.4996,96.5079 71,103.5C 67.1129,115.892 58.9462,123.558 46.5,126.5 Z"/></g>
<g><path style="opacity:0.953" fill="#f6872a" d="M 461.5,126.5 C 455.833,126.5 450.167,126.5 444.5,126.5C 431.128,123.633 422.294,115.633 418,102.5C 416.458,93.8963 416.124,85.2296 417,76.5C 420.063,61.7707 428.896,52.6041 443.5,49C 458.576,45.805 471.409,49.6383 482,60.5C 485.745,65.9038 487.579,71.9038 487.5,78.5C 480.492,78.6663 473.492,78.4996 466.5,78C 462.394,66.898 455.061,64.2313 444.5,70C 439.82,74.8724 437.82,80.7057 438.5,87.5C 438.551,105.259 446.718,110.925 463,104.5C 464.544,102.532 465.711,100.365 466.5,98C 473.492,97.5004 480.492,97.3337 487.5,97.5C 486.939,107.458 482.606,115.291 474.5,121C 470.259,123.349 465.925,125.182 461.5,126.5 Z"/></g>
<g><path style="opacity:0.953" fill="#f6872a" d="M 537.5,126.5 C 531.5,126.5 525.5,126.5 519.5,126.5C 504.007,123.669 496.007,114.335 495.5,98.5C 502.5,98.5 509.5,98.5 516.5,98.5C 517.218,105.551 521.218,108.884 528.5,108.5C 534.883,109.268 537.717,106.601 537,100.5C 536.097,99.2986 534.931,98.4652 533.5,98C 525.027,96.132 516.694,93.7987 508.5,91C 496.817,82.8373 494.317,72.3373 501,59.5C 505.666,54.0826 511.499,50.5826 518.5,49C 526.564,48.1367 534.564,48.47 542.5,50C 553.16,54.167 558.493,62.0003 558.5,73.5C 551.825,73.6663 545.158,73.4996 538.5,73C 534.608,65.7053 528.941,64.0386 521.5,68C 519.302,71.0478 519.968,73.7144 523.5,76C 532.463,77.7402 541.13,80.4068 549.5,84C 558.954,90.4366 562.121,99.2699 559,110.5C 554.77,119.857 547.603,125.191 537.5,126.5 Z"/></g>
<g><path style="opacity:0.956" fill="#414141" d="M 668.5,48.5 C 668.291,54.9277 667.624,61.261 666.5,67.5C 658.906,68.9756 654.74,73.6422 654,81.5C 652.597,89.3475 653.93,96.6809 658,103.5C 665.604,109.073 672.937,108.74 680,102.5C 681.868,99.3949 683.035,96.0615 683.5,92.5C 678.195,93.1942 672.862,93.5276 667.5,93.5C 667.5,93.1667 667.5,92.8333 667.5,92.5C 677.487,91.6527 687.487,90.986 697.5,90.5C 700.167,90.5 702.833,90.5 705.5,90.5C 704.679,109.302 695.345,121.302 677.5,126.5C 671.5,126.5 665.5,126.5 659.5,126.5C 637.261,118.39 628.094,102.39 632,78.5C 636.221,58.7757 648.387,48.7757 668.5,48.5 Z"/></g>
<g><path style="opacity:0.955" fill="#434241" d="M 671.5,44.5 C 672.434,45.5676 672.768,46.901 672.5,48.5C 694.628,51.3874 705.628,64.0541 705.5,86.5C 697.972,86.3738 690.639,85.7071 683.5,84.5C 683.485,77.8043 680.819,72.4709 675.5,68.5C 674.526,70.7427 674.192,73.076 674.5,75.5C 672.986,65.3608 671.986,55.0274 671.5,44.5 Z"/></g>
<g><path style="opacity:0.954" fill="#f6872a" d="M 81.5,49.5 C 95.504,49.3334 109.504,49.5001 123.5,50C 139.002,54.8249 145.502,65.3249 143,81.5C 141.125,88.3736 137.291,93.8736 131.5,98C 136.845,106.857 141.511,116.023 145.5,125.5C 137.826,125.666 130.159,125.5 122.5,125C 117.951,117.405 113.785,109.571 110,101.5C 107.959,100.577 105.792,100.244 103.5,100.5C 103.5,108.833 103.5,117.167 103.5,125.5C 96.1667,125.5 88.8333,125.5 81.5,125.5C 81.5,100.167 81.5,74.8333 81.5,49.5 Z M 103.5,66.5 C 109.061,65.8024 114.227,66.8024 119,69.5C 122.318,75.0588 121.152,79.5588 115.5,83C 111.514,83.4988 107.514,83.6655 103.5,83.5C 103.5,77.8333 103.5,72.1667 103.5,66.5 Z"/></g>
<g><path style="opacity:0.956" fill="#f6872a" d="M 174.5,49.5 C 184.5,49.5 194.5,49.5 204.5,49.5C 212.702,74.7721 220.702,100.105 228.5,125.5C 220.804,125.831 213.138,125.497 205.5,124.5C 204.167,120.5 202.833,116.5 201.5,112.5C 193.521,111.335 185.521,111.168 177.5,112C 175.78,116.377 174.447,120.877 173.5,125.5C 165.493,125.666 157.493,125.5 149.5,125C 157.931,99.8742 166.264,74.7076 174.5,49.5 Z M 188.5,72.5 C 189.117,72.6107 189.617,72.944 190,73.5C 191.974,80.422 194.141,87.2554 196.5,94C 191.798,94.8283 187.131,94.6616 182.5,93.5C 184.971,86.6146 186.971,79.6146 188.5,72.5 Z"/></g>
<g><path style="opacity:0.972" fill="#f6872a" d="M 236.5,49.5 C 250.504,49.3334 264.504,49.5001 278.5,50C 294.722,55.936 300.888,67.436 297,84.5C 294.5,93.6667 288.667,99.5 279.5,102C 272.229,103.3 264.896,103.8 257.5,103.5C 257.5,110.833 257.5,118.167 257.5,125.5C 250.5,125.5 243.5,125.5 236.5,125.5C 236.5,100.167 236.5,74.8333 236.5,49.5 Z M 257.5,66.5 C 262.777,65.9312 267.777,66.7645 272.5,69C 276.955,74.9401 276.289,80.2735 270.5,85C 266.27,86.2899 261.936,86.7899 257.5,86.5C 257.5,79.8333 257.5,73.1667 257.5,66.5 Z"/></g>
<g><path style="opacity:0.963" fill="#f6872a" d="M 305.5,49.5 C 312.833,49.5 320.167,49.5 327.5,49.5C 327.5,59.1667 327.5,68.8333 327.5,78.5C 336.167,78.5 344.833,78.5 353.5,78.5C 353.5,68.8333 353.5,59.1667 353.5,49.5C 360.5,49.5 367.5,49.5 374.5,49.5C 374.5,74.8333 374.5,100.167 374.5,125.5C 367.5,125.5 360.5,125.5 353.5,125.5C 353.5,115.833 353.5,106.167 353.5,96.5C 344.833,96.5 336.167,96.5 327.5,96.5C 327.5,106.167 327.5,115.833 327.5,125.5C 320.167,125.5 312.833,125.5 305.5,125.5C 305.5,100.167 305.5,74.8333 305.5,49.5 Z"/></g>
<g><path style="opacity:0.94" fill="#f6872a" d="M 384.5,49.5 C 391.833,49.5 399.167,49.5 406.5,49.5C 406.5,74.8333 406.5,100.167 406.5,125.5C 399.167,125.5 391.833,125.5 384.5,125.5C 384.5,100.167 384.5,74.8333 384.5,49.5 Z"/></g>
<g><path style="opacity:0.974" fill="#404140" d="M 565.5,49.5 C 587.833,49.5 610.167,49.5 632.5,49.5C 632.5,55.1667 632.5,60.8333 632.5,66.5C 624.833,66.5 617.167,66.5 609.5,66.5C 609.5,86.1667 609.5,105.833 609.5,125.5C 602.5,125.5 595.5,125.5 588.5,125.5C 588.5,105.833 588.5,86.1667 588.5,66.5C 580.833,66.5 573.167,66.5 565.5,66.5C 565.5,60.8333 565.5,55.1667 565.5,49.5 Z"/></g>
<g><path style="opacity:0.969" fill="#414141" d="M 710.5,90.5 C 711.5,89.8333 712.5,89.1667 713.5,88.5C 715.5,88.5 717.5,88.5 719.5,88.5C 723.893,88.5432 724.226,88.0432 720.5,87C 717.854,86.5026 715.187,86.3359 712.5,86.5C 711.833,86.5 711.167,86.5 710.5,86.5C 710.5,74.1667 710.5,61.8333 710.5,49.5C 723.837,49.3334 737.171,49.5001 750.5,50C 769.136,55.4014 778.47,67.9014 778.5,87.5C 778.537,107.624 768.87,120.124 749.5,125C 736.504,125.5 723.504,125.667 710.5,125.5C 710.5,113.833 710.5,102.167 710.5,90.5 Z M 731.5,67.5 C 747.677,64.6961 756.01,71.3628 756.5,87.5C 756.017,103.63 747.683,110.297 731.5,107.5C 731.5,94.1667 731.5,80.8333 731.5,67.5 Z"/></g>
<g><path style="opacity:0.958" fill="#404140" d="M 800.5,49.5 C 810.416,49.181 820.25,49.5144 830,50.5C 837.866,75.2661 846.033,99.9327 854.5,124.5C 846.528,125.498 838.528,125.831 830.5,125.5C 829.5,120.833 828.5,116.167 827.5,111.5C 819.167,111.5 810.833,111.5 802.5,111.5C 801.467,116.098 800.134,120.598 798.5,125C 790.841,125.5 783.174,125.666 775.5,125.5C 783.436,100.027 791.769,74.6934 800.5,49.5 Z M 814.5,72.5 C 817.204,79.6155 819.537,86.9488 821.5,94.5C 817.167,94.5 812.833,94.5 808.5,94.5C 810.294,87.1162 812.294,79.7829 814.5,72.5 Z"/></g>
<g><path style="opacity:0.958" fill="#404140" d="M 922.5,49.5 C 922.5,50.1667 922.5,50.8333 922.5,51.5C 913.108,67.9441 903.941,84.6107 895,101.5C 894.5,109.493 894.334,117.493 894.5,125.5C 887.5,125.5 880.5,125.5 873.5,125.5C 873.666,117.16 873.5,108.827 873,100.5C 863.96,83.5867 854.794,66.7534 845.5,50C 853.853,49.1683 862.187,49.3349 870.5,50.5C 874.728,59.9553 879.228,69.2887 884,78.5C 889.232,69.2027 894.065,59.7027 898.5,50C 906.493,49.5003 914.493,49.3336 922.5,49.5 Z"/></g>
<g><path style="opacity:0.439" fill="#a3734c" d="M 662.5,84.5 C 663.473,86.9479 663.806,89.6146 663.5,92.5C 664.833,92.5 666.167,92.5 667.5,92.5C 667.5,92.8333 667.5,93.1667 667.5,93.5C 666.081,94.4511 664.415,94.7845 662.5,94.5C 662.5,91.1667 662.5,87.8333 662.5,84.5 Z"/></g>
<g><path style="opacity:1" fill="#875f3d" d="M 712.5,86.5 C 715.187,86.3359 717.854,86.5026 720.5,87C 724.226,88.0432 723.893,88.5432 719.5,88.5C 717.167,87.8333 714.833,87.1667 712.5,86.5 Z"/></g>
<g><path style="opacity:0.339" fill="#776759" d="M 713.5,88.5 C 712.5,89.1667 711.5,89.8333 710.5,90.5C 708.833,90.5 707.167,90.5 705.5,90.5C 702.833,90.5 700.167,90.5 697.5,90.5C 702.658,89.5416 707.991,88.8749 713.5,88.5 Z"/></g>
</svg>
